<svg xmlns="http://www.w3.org/2000/svg" viewBox="0 0 227.06 227.06"><defs><style>.cls-1{fill:#f7941d;stroke:#f7941d;stroke-miterlimit:10;}.cls-2{fill:#fff;}</style></defs><g id="Layer_2" data-name="Layer 2"><g id="Layer_6" data-name="Layer 6"><circle class="cls-1" cx="113.53" cy="113.53" r="113.03"/><path class="cls-2" d="M114.58,179.19H53.21a27.8,27.8,0,0,1-3.42-.08c-2.55-.33-3.47-1.32-3.69-3.89-.09-1.14,0-2.29,0-3.43,0-21.32,0-42.63,0-63.94,0-2.77-.58-4.71-3-6.47C37.8,97.58,35.35,92,34.5,85.64a7.09,7.09,0,0,1,1.37-5.23C44.26,68.48,52.67,56.56,61,44.56c1.6-2.32,3.55-2.93,6.18-2.92,18.74,0,37.48,0,56.22,0,12.73,0,25.46.08,38.19-.05a8,8,0,0,1,7.5,3.8c7.9,11.57,16,23,24.09,34.45a8.55,8.55,0,0,1,1.62,6,21,21,0,0,1-8.29,15.4c-2.54,1.91-3.11,3.94-3.1,6.86.1,21.17.06,42.34.06,63.51,0,1,0,2,0,3-.2,3.23-1.25,4.34-4.46,4.52-1.85.11-3.71,0-5.57,0H114.58ZM76.46,97c-8,7.81-8.23,7.92-22.55,9.86-.82,4-.72,61.24.15,64.62h11v-4.82c0-15.59,0-31.17,0-46.76,0-4.65.9-5.52,5.53-5.54,9.29,0,18.59,0,27.88,0,1.43,0,2.86-.07,4.29,0,2.94.21,4,1.3,4.21,4.3.08,1,0,2,0,3v49.5c5.19.86,65.3.72,68.46-.06.88-5.41.6-61.55-.15-63.88-4.3-.88-8.58-1.09-12.26-2.69s-7-4.66-10.71-7.26a23.38,23.38,0,0,1-18.47,9.24c-8.06.13-14.08-3.84-19.13-9.65C104.13,109.21,88.07,110.22,76.46,97Zm22.45,74.46c.81-4.59.68-46.1-.11-49.22-5.2-.74-22.84-.55-25.93.3v48.92ZM118.66,49.27c-.13,1.14-.27,1.83-.27,2.52,0,10.27,0,20.54,0,30.81a20.36,20.36,0,0,0,.59,4.65,15.27,15.27,0,0,0,22.7,9.54,13.7,13.7,0,0,0,6.38-16.05c-1.92-6.41-3.82-12.84-5.75-19.25-1.22-4.06-2.5-8.11-3.77-12.22Zm-8.16.08H91c-.4,1-.79,1.78-1,2.59-2.88,9.56-5.37,19.26-8.73,28.64C78.64,87.75,84,95.59,90,97.9a15.19,15.19,0,0,0,20.81-14c.14-10.56,0-21.13,0-31.69C110.79,51.36,110.62,50.52,110.5,49.35Zm36-.23c1.34,4.55,2.56,8.34,3.58,12.18,2.28,8.53,5.65,16.74,7,25.56,1,6.76,7.42,11.81,14.27,12a15.26,15.26,0,0,0,15.3-10.75,5.52,5.52,0,0,0-.92-5.61c-1.28-1.53-2.33-3.25-3.47-4.89q-9.09-13-18.18-26c-.89-1.27-1.65-2.61-3.61-2.56C156.09,49.19,151.68,49.12,146.54,49.12Zm-64,0c-5,0-9.58-.13-14.11.1a4.75,4.75,0,0,0-2.89,2.08C58.22,61.67,51,72.14,43.63,82.45a6.1,6.1,0,0,0-.8,6A15.31,15.31,0,0,0,58.74,98.87c6.94-.5,12.53-5.85,13.86-13.09a97.86,97.86,0,0,1,2.17-9.56c2-7,4.21-13.93,6.29-20.9C81.61,53.46,82,51.55,82.57,49.13Z"/><path class="cls-2" d="M141.9,114.32c5.72,0,11.43,0,17.15,0,4.09,0,5.22,1,5.26,5q.16,14.15,0,28.29c0,3.51-1.17,4.61-4.73,4.63q-18.21.11-36.43,0c-3.48,0-4.58-1.15-4.61-4.72q-.12-14.15,0-28.29c0-3.74,1.18-4.85,4.91-4.9C129.61,114.26,135.76,114.32,141.9,114.32Zm-15.71,30.15c5.22.84,27,.68,30.36-.19V121.83c-10.26.07-20.25-.27-30.36.23Z"/></g></g></svg>