<svg xmlns="http://www.w3.org/2000/svg" viewBox="0 0 227.06 227.06"><defs><style>.cls-1{fill:#006838;stroke:#006838;stroke-miterlimit:10;}.cls-2{fill:#fff;}</style></defs><g id="Layer_2" data-name="Layer 2"><g id="Layer_3" data-name="Layer 3"><circle class="cls-1" cx="113.53" cy="113.53" r="113.03"/><path class="cls-2" d="M121.18,141.93H41.63A1.95,1.95,0,0,1,40,138.85l13.1-18.34h-5.4a2,2,0,0,1-1.62-3l10.22-15.33H50.8a1.94,1.94,0,0,1-1.47-3.22l15.6-18.2H60a1.94,1.94,0,0,1-1.37-3.32L80,56a2,2,0,0,1,2.76,0L104.2,77.41a1.95,1.95,0,0,1-1.38,3.32H97.88l15.6,18.2a1.95,1.95,0,0,1-1.48,3.22h-5.54l10.22,15.33a1.95,1.95,0,0,1-1.62,3h-5.4l13.1,18.34a1.95,1.95,0,0,1-1.58,3.08ZM45.41,138h72l-13.1-18.34a2,2,0,0,1,1.59-3.08h5.54L101.2,101.28a1.95,1.95,0,0,1,1.62-3h4.94l-15.6-18.2a1.94,1.94,0,0,1,1.48-3.21h4.48L81.4,60.12,64.68,76.84h4.48a1.94,1.94,0,0,1,1.48,3.21L55,98.25H60a1.95,1.95,0,0,1,1.62,3L51.38,116.61h5.54a1.95,1.95,0,0,1,1.59,3.08Z"/><path class="cls-2" d="M182.37,141.93h-52a1.94,1.94,0,0,1-1.67-3l7.41-12.35h-2.68a2,2,0,0,1-1.75-1.08,1.93,1.93,0,0,1,.19-2l6.84-9.12h-2.22a2,2,0,0,1-1.38-3.33l8.91-8.91H142.6a1.95,1.95,0,0,1-1.22-3.47l15.3-12.24a1.94,1.94,0,0,1,2.43,0l15.3,12.24a1.95,1.95,0,0,1-1.22,3.47H171l6.84,9.12a2,2,0,0,1-1.56,3.12H174l6.84,9.12a2,2,0,0,1-1.56,3.12h-2.68L184,139a1.94,1.94,0,0,1-1.67,3ZM133.8,138h45.13l-7.41-12.35a2,2,0,0,1,1.67-3h2.23l-6.84-9.12a1.93,1.93,0,0,1-.19-2,2,2,0,0,1,1.74-1.08h2.23l-6.84-9.12a1.93,1.93,0,0,1-.19-2,2,2,0,0,1,1.74-1.08h.57l-9.75-7.79-9.74,7.79h.57a2,2,0,0,1,1.37,3.33l-8.91,8.91h1.42a2,2,0,0,1,1.74,1.08,1.93,1.93,0,0,1-.19,2l-6.84,9.12h2.23a2,2,0,0,1,1.67,3Z"/><rect class="cls-2" x="79.45" y="139.98" width="3.9" height="42.84"/><rect class="cls-2" x="155.95" y="139.98" width="3.9" height="42.84"/><path class="cls-2" d="M185.43,181.7H121.18a1.95,1.95,0,1,1,0-3.89h64.25a1.95,1.95,0,1,1,0,3.89Z"/><path class="cls-2" d="M112,181.7h-3.06a1.95,1.95,0,1,1,0-3.89H112a1.95,1.95,0,1,1,0,3.89Z"/><path class="cls-2" d="M99.76,181.7H41.63a1.95,1.95,0,1,1,0-3.89H99.76a1.95,1.95,0,1,1,0,3.89Z"/><path class="cls-2" d="M133.42,59.31a11.13,11.13,0,1,1,11.12-11.12A11.14,11.14,0,0,1,133.42,59.31Zm0-18.35a7.23,7.23,0,1,0,7.23,7.23A7.23,7.23,0,0,0,133.42,41Z"/><path class="cls-2" d="M115.06,50.14h-6.12a2,2,0,0,1,0-3.9h6.12a2,2,0,1,1,0,3.9Z"/><path class="cls-2" d="M116.11,67.44a1.95,1.95,0,0,1-1.38-3.32l4.33-4.33a1.95,1.95,0,0,1,2.75,2.76l-4.32,4.32A2,2,0,0,1,116.11,67.44Z"/><path class="cls-2" d="M133.42,74.61a1.94,1.94,0,0,1-1.95-1.94V66.55a1.95,1.95,0,1,1,3.89,0v6.12A1.94,1.94,0,0,1,133.42,74.61Z"/><path class="cls-2" d="M150.72,67.44a1.94,1.94,0,0,1-1.37-.57L145,62.55a1.95,1.95,0,0,1,2.75-2.76l4.33,4.33a1.95,1.95,0,0,1-1.38,3.32Z"/><path class="cls-2" d="M157.89,50.14h-6.12a2,2,0,0,1,0-3.9h6.12a2,2,0,1,1,0,3.9Z"/></g></g></svg>