<svg xmlns="http://www.w3.org/2000/svg" viewBox="0 0 227.06 227.06"><defs><style>.cls-1{fill:#fff200;stroke:#fff200;stroke-miterlimit:10;}.cls-2{fill:#fff;}</style></defs><g id="Layer_2" data-name="Layer 2"><g id="Layer_2-2" data-name="Layer 2"><circle class="cls-1" cx="113.53" cy="113.53" r="113.03"/><path class="cls-2" d="M116.77,82.2a32.65,32.65,0,1,0,32.65,32.65A32.69,32.69,0,0,0,116.77,82.2ZM51.22,57.47a2.33,2.33,0,0,0-2.33,2.33V76.6H44.72V59.82a2.33,2.33,0,0,0-4.66,0V76.6H35.88V59.8a2.33,2.33,0,0,0-4.66,0V89.94a11.15,11.15,0,0,0,6.48,10.12V164.9a4.69,4.69,0,1,0,9.37,0V100.06a11.15,11.15,0,0,0,6.48-10.12V59.8A2.33,2.33,0,0,0,51.22,57.47Zm65.55,4.73a52.65,52.65,0,1,0,52.64,52.65A52.65,52.65,0,0,0,116.77,62.2Zm0,93.07a40.42,40.42,0,1,1,40.41-40.42A40.47,40.47,0,0,1,116.77,155.27Zm79-93.71s.13-4-2.55-4c-3.75,0-9.07,10.17-9.15,20.18-.07,7.44.13,40.69.13,40.69a12.53,12.53,0,0,0,2.33,4.55,4.92,4.92,0,0,0-1.61,3.63v38a5,5,0,1,0,9.92,0v-38a4.9,4.9,0,0,0-1.17-3.16c1.06-1,2-2.85,2.1-6C196,110.12,195.73,61.56,195.73,61.56Z"/></g></g></svg>