<svg xmlns="http://www.w3.org/2000/svg" viewBox="0 0 227.06 227.06"><defs><style>.cls-1{fill:#754c29;stroke:#754c29;stroke-miterlimit:10;}.cls-2{fill:#fff;}</style></defs><g id="Layer_2" data-name="Layer 2"><g id="Layer_1-2" data-name="Layer 1"><circle class="cls-1" cx="113.53" cy="113.53" r="113.03"/><path class="cls-2" d="M194.86,110.94c-4.68-7.45-14.78-10.27-28-7.92q.15,4.38,0,8.43c10.28-2.13,18.07-.7,21,3.9,1.43,2.27,1.41,7.68-1.38,13.63-2.41,5.15-9.89,16.78-29.42,21.33a67.83,67.83,0,0,1-6.09,9.41h.15a3.39,3.39,0,0,0,.55,0c28.45-3.78,39.07-20.27,42.31-27.19C197.79,124.38,198.12,116.12,194.86,110.94Z"/><path class="cls-2" d="M113.9,78.65a2.59,2.59,0,0,0,.76,3.58,2.63,2.63,0,0,0,1.41.42,2.56,2.56,0,0,0,2.17-1.18c10-15.34,2.91-25.59-2.77-33.83-6.06-8.78-10.43-15.12,2.33-26.56a2.58,2.58,0,1,0-3.45-3.85c-16.16,14.48-9.24,24.51-3.14,33.35C116.76,58.62,122,66.21,113.9,78.65Z"/><path class="cls-2" d="M102,80.55a2.59,2.59,0,0,0,4.12,3.13c6.67-8.77,2.28-14.65-1.24-19.38-3.32-4.45-5.93-8-2.15-14.33a2.59,2.59,0,0,0-4.45-2.64c-5.54,9.34-1.11,15.28,2.45,20.06C104.06,71.9,106.28,74.88,102,80.55Z"/><path class="cls-2" d="M101.16,173.48h16.59c8.73,0,18.59-5.1,26.38-13.65,7.42-8.14,19.16-26.3,17.51-58.57a60.18,60.18,0,0,1-13.12,3.16,270.33,270.33,0,0,1-39.06,2.5,270.23,270.23,0,0,1-39.06-2.5,59.87,59.87,0,0,1-13.12-3.16c-1.65,32.27,10.09,50.43,17.5,58.57C82.57,168.38,92.44,173.48,101.16,173.48Z"/><path class="cls-2" d="M109.46,101.23a276.55,276.55,0,0,0,35.79-2.09c9.16-1.24,13.25-2.64,15-3.47-1.74-.84-5.83-2.24-15-3.48a276.55,276.55,0,0,0-35.79-2.09,276.55,276.55,0,0,0-35.79,2.09c-9.17,1.24-13.25,2.64-15,3.48,1.75.83,5.83,2.23,15,3.47A276.55,276.55,0,0,0,109.46,101.23Z"/><path class="cls-2" d="M143.14,168c-7.86,6.75-17,10.66-25.39,10.66H101.16c-8.37,0-17.52-3.91-25.38-10.66-13.2,2-21.71,5.19-21.71,8.77,0,6.1,24.8,11,55.39,11s55.39-4.95,55.39-11C164.85,173.19,156.33,170,143.14,168Z"/></g></g></svg>