<svg xmlns="http://www.w3.org/2000/svg" viewBox="0 0 227.06 227.06"><defs><style>.cls-1{fill:#27aae1;stroke:#27aae1;stroke-miterlimit:10;}.cls-2{fill:#fff;}</style></defs><g id="Layer_2" data-name="Layer 2"><g id="Layer_4" data-name="Layer 4"><circle class="cls-1" cx="113.53" cy="113.53" r="113.03"/><path class="cls-2" d="M100.29,101.81a31.87,31.87,0,1,0,56,25.51,35.26,35.26,0,0,0,.42-5.13,31.87,31.87,0,0,0-56.38-20.38Zm30.21-7.74a29,29,0,0,1,22.64,23.69,28.54,28.54,0,0,1,.33,4.43,28.68,28.68,0,1,1-23-28.12Z"/><path class="cls-2" d="M99.76,122.19a1.6,1.6,0,0,0,3.2,0,21.85,21.85,0,0,1,21.83-21.84,1.6,1.6,0,0,0,0-3.19,25,25,0,0,0-25,25Z"/><path class="cls-2" d="M161.29,82.49h12.6a1.6,1.6,0,0,0,0-3.19h-12.6A1.6,1.6,0,0,0,161.29,82.49Z"/><path class="cls-2" d="M34.22,127.19v33.67a27.2,27.2,0,0,0,.11,4,8.26,8.26,0,0,0,8.41,6.8H182.12a10.7,10.7,0,0,0,4.95-.85,8.2,8.2,0,0,0,4.52-7.28v-73c0-4.94,0-9.89,0-14.83a8.28,8.28,0,0,0-8.11-8.53H147.56L141,58.53c-.74-1-1.81-3.05-3.16-3.14-1.15-.07-2.33,0-3.47,0H119.62c-1.51,0-3,0-4.53,0s-2,1.14-2.7,2.11l-7.49,9.72H43a10.69,10.69,0,0,0-2.87.29,8.21,8.21,0,0,0-6,7.67c0,1,0,2.11,0,3.17v48.84Zm154.17,36.3a5,5,0,0,1-5.28,5H42.33a5,5,0,0,1-4.91-4.91c0-1.84,0-3.69,0-5.53h65.25a40.1,40.1,0,0,0,4.71,2.51,42.16,42.16,0,0,0,59.07-31.75,44.67,44.67,0,0,0,.53-6.63A42.23,42.23,0,0,0,159.1,97.7q-.89-1.23-1.86-2.4h31.15v59.56h-28.8a1.6,1.6,0,0,0,0,3.2h28.8v1.24C188.39,160.69,188.41,162.1,188.39,163.49Zm-25.1-47.37a37.34,37.34,0,0,1,.46,6.07,38.85,38.85,0,1,1-.46-6.07ZM39.61,71.24c1.68-1.12,4-.82,5.9-.82h59.33a2.35,2.35,0,0,0,2.22-.8c.89-1.07,1.7-2.21,2.54-3.31l6-7.72h21.55l6.21,8.27L144.91,69c.39.53.78,1.2,1.44,1.39a8.56,8.56,0,0,0,2.26.06h34.87a5,5,0,0,1,4.91,4.93V92.1h-34.1a42.15,42.15,0,1,0-56.13,62.76H37.4c0-1.06,0-2.13,0-3.19V95.3H86.36a1.6,1.6,0,0,0,0-3.2H37.42v-15C37.42,74.84,37.47,72.65,39.61,71.24Z"/><path class="cls-2" d="M158.73,65.44H171a1.6,1.6,0,0,0,0-3.19H158.73A1.6,1.6,0,0,0,158.73,65.44Z"/><path class="cls-2" d="M52.85,65.44h17.3a1.6,1.6,0,0,0,0-3.19H52.85A1.6,1.6,0,0,0,52.85,65.44Z"/><path class="cls-2" d="M119.74,70.65h14.52a1.46,1.46,0,0,0,1.11-.45,1.48,1.48,0,0,0,.48-1.14V62.68a1.62,1.62,0,0,0-1.59-1.6H119.74a1.62,1.62,0,0,0-1.6,1.6v6.38A1.62,1.62,0,0,0,119.74,70.65Zm12.92-3.19H121.34V64.28h11.32Z"/></g></g></svg>