<?xml version="1.0" encoding="utf-8"?>
<!-- Generator: Adobe Illustrator 25.2.3, SVG Export Plug-In . SVG Version: 6.00 Build 0)  -->
<svg version="1.1" id="Layer_1" xmlns="http://www.w3.org/2000/svg" xmlns:xlink="http://www.w3.org/1999/xlink" x="0px" y="0px"
	 viewBox="0 0 42 42" style="enable-background:new 0 0 42 42;" xml:space="preserve">
<style type="text/css">
	.st0{fill:#8A8B83;}
</style>
<path class="st0" d="M5,0C2.3,0,0,2.3,0,5v32c0,2.7,2.3,5,5,5h16.8c0.1,0,0.2,0,0.3,0h5.7c0.1,0,0.2,0,0.3,0H37c2.7,0,5-2.3,5-5V5
	c0-2.7-2.3-5-5-5H5z M5,2h32c1.7,0,3,1.3,3,3v32c0,1.7-1.3,3-3,3h-8V26h3.8l1.4-7H29v-2c0-0.6,0.1-0.6,0.2-0.7S30,16,31,16h3v-5.6
	l-0.6-0.3c0,0-2.3-1.1-5.4-1.1c-2.2,0-4.1,0.9-5.3,2.4S21,14.8,21,17v2h-3v7h3v14H5c-1.7,0-3-1.3-3-3V5C2,3.3,3.3,2,5,2z M28,11
	c2.1,0,3.4,0.5,4,0.7V14h-1c-1.2,0-2.1,0.1-2.8,0.6C27.4,15.1,27,16.1,27,17v4h4.8l-0.6,3H27v16h-4V24h-3v-3h3v-4
	c0-1.8,0.5-3.4,1.3-4.4S26.2,11,28,11z"/>
</svg>
