<?xml version="1.0" encoding="utf-8"?>
<!-- Generator: Adobe Illustrator 25.2.3, SVG Export Plug-In . SVG Version: 6.00 Build 0)  -->
<svg version="1.1" id="Layer_1" xmlns="http://www.w3.org/2000/svg" xmlns:xlink="http://www.w3.org/1999/xlink" x="0px" y="0px"
	 viewBox="0 0 16 16" style="enable-background:new 0 0 16 16;" xml:space="preserve">
<style type="text/css">
	.st0{clip-path:url(#SVGID_2_);}
	.st1{fill-rule:evenodd;clip-rule:evenodd;fill:#8A8B83;}
</style>
<g>
	<defs>
		<rect id="SVGID_1_" y="0" width="16" height="16"/>
	</defs>
	<clipPath id="SVGID_2_">
		<use xlink:href="#SVGID_1_"  style="overflow:visible;"/>
	</clipPath>
	<g id="Instagram" class="st0">
		<path id="Path_3" class="st1" d="M8,1.4c1.1,0,2.1,0,3.2,0.1c0.5,0,1,0.1,1.5,0.3c0.7,0.3,1.2,0.8,1.5,1.5c0.2,0.5,0.3,1,0.3,1.5
			c0,0.8,0.1,1.1,0.1,3.2c0,1.1,0,2.1-0.1,3.2c0,0.5-0.1,1-0.3,1.5c-0.3,0.7-0.8,1.2-1.5,1.5c-0.5,0.2-1,0.3-1.5,0.3
			c-0.8,0-1.1,0.1-3.2,0.1c-1.1,0-2.1,0-3.2-0.1c-0.5,0-1-0.1-1.5-0.3c-0.7-0.3-1.2-0.8-1.5-1.5c-0.2-0.5-0.3-1-0.3-1.5
			c0-0.8-0.1-1.1-0.1-3.2c0-1.1,0-2.1,0.1-3.2c0-0.5,0.1-1,0.3-1.5C1.9,3,2.1,2.7,2.4,2.4c0.2-0.3,0.5-0.5,0.9-0.6
			c0.5-0.2,1-0.3,1.5-0.3C5.9,1.4,6.9,1.4,8,1.4 M8,0C6.9,0,5.8,0,4.7,0.1c-0.7,0-1.3,0.1-2,0.4c-0.5,0.2-1,0.5-1.4,0.9
			C0.9,1.7,0.6,2.2,0.4,2.8C0.2,3.4,0,4,0.1,4.7C0,5.8,0,6.9,0,8c0,1.1,0,2.2,0.1,3.3c0,0.7,0.1,1.3,0.4,2c0.2,0.5,0.5,1,0.9,1.4
			c0.4,0.4,0.9,0.7,1.4,0.9c0.6,0.2,1.3,0.4,2,0.4C5.8,16,6.9,16,8,16c1.1,0,2.2,0,3.3-0.1c0.7,0,1.3-0.1,2-0.4
			c1.1-0.4,1.9-1.2,2.3-2.3c0.2-0.6,0.4-1.3,0.4-2c0-0.9,0.1-1.2,0.1-3.3c0-1.1,0-2.2-0.1-3.3c0-0.7-0.1-1.3-0.4-2
			c-0.2-0.5-0.5-1-0.9-1.4c-0.4-0.4-0.9-0.7-1.4-0.9c-0.6-0.2-1.3-0.4-2-0.4C10.2,0,9.1,0,8,0 M8,3.9c-2.2,0-4.1,1.7-4.1,4
			c0,0,0,0.1,0,0.1c0,2.3,1.8,4.1,4.1,4.1s4.1-1.8,4.1-4.1S10.3,3.9,8,3.9L8,3.9 M8,10.7c-1.4,0-2.6-1.1-2.7-2.6c0,0,0-0.1,0-0.1
			c0-1.4,1.1-2.6,2.6-2.7c0,0,0.1,0,0.1,0c1.4,0,2.6,1.1,2.7,2.6c0,0,0,0.1,0,0.1C10.7,9.4,9.5,10.6,8,10.7C8.1,10.7,8,10.7,8,10.7
			 M12.3,2.8c-0.5,0-1,0.4-1,1c0,0.5,0.4,1,1,1c0.5,0,1-0.4,1-1v0C13.2,3.2,12.8,2.8,12.3,2.8"/>
	</g>
</g>
</svg>
